<svg width="254" height="254" viewBox="0 0 254 254" fill="none" xmlns="http://www.w3.org/2000/svg">
<path d="M169.187 149.28L177.164 161.336H161.071L169.187 149.28Z" fill="#016155"/>
<path d="M84.7837 161.336L92.7138 149.28H76.6216L84.7837 161.336Z" fill="#016155"/>
<path d="M119.241 59L84.8764 112.788L50.3732 59H27.0464V179.188H42.7213V108.336C42.7213 105.554 42.5821 100.918 42.5821 94.9359C42.3039 88.908 42.1648 84.5956 42.1648 81.5352V77.9185L76.668 131.428H92.7603L126.846 78.7532V59.0464H119.241V59Z" fill="#016155"/>
<path d="M203.69 59L169.326 112.788L134.823 59H126.846V78.7068L161.071 131.382H177.163L211.527 77.8722C211.527 84.4566 211.388 90.4381 211.388 96.1878C211.249 101.798 211.249 105.833 211.249 108.336V179.188H226.646V59H203.69Z" fill="#016155"/>
<path d="M226.599 179.188H27V194.861H226.599V179.188Z" fill="#016155"/>
</svg>
