<svg width="39" height="25" viewBox="0 0 39 25" fill="none" xmlns="http://www.w3.org/2000/svg">
<path d="M27.7784 16.6128L29.3368 18.8312H26.1929L27.7784 16.6128Z" fill="#00423A"/>
<path d="M11.2894 18.8312L12.8388 16.6128H9.69482L11.2894 18.8312Z" fill="#00423A"/>
<path d="M18.0182 0L11.3045 9.89753L4.56368 0H0.00634766V22.1158H3.06874V9.07841C3.06874 8.56647 3.04156 7.71324 3.04156 6.61257C2.98719 5.50337 2.96002 4.70984 2.96002 4.14671V3.48119L9.70088 13.3275H12.8448L19.5041 3.63479V0.00854068H18.0182V0Z" fill="#00423A"/>
<path d="M34.5149 0L27.8012 9.89753L21.0603 0H19.502V3.62625L26.1885 13.319H29.3324L36.0461 3.47267C36.0461 4.68427 36.0189 5.78492 36.0189 6.84293C35.9917 7.87535 35.9917 8.61766 35.9917 9.07841V22.1158H38.9997V0H34.5149Z" fill="#00423A"/>
<path d="M38.9955 22.1161H0V25H38.9955V22.1161Z" fill="#00423A"/>
</svg>
