<svg width="794" height="104" viewBox="0 0 794 104" fill="none" xmlns="http://www.w3.org/2000/svg">
<g opacity="0.05">
<path d="M225.531 69.145L231.935 78.3642H219.016L225.531 69.145Z" fill="black"/>
<path d="M157.773 78.3642L164.14 69.145H151.221L157.773 78.3642Z" fill="black"/>
<path d="M185.432 0.105957L157.844 41.2375L130.143 0.105957H111.416V92.0136H124V37.8335C124 35.706 123.889 32.1602 123.889 27.5861C123.665 22.9765 123.553 19.6789 123.553 17.3386V14.5729L151.254 55.4917H164.173L191.538 15.2112V0.14145H185.432V0.105957Z" fill="black"/>
<path d="M253.226 0.105957L225.637 41.2375L197.937 0.105957H191.533V15.1757L219.01 55.4562H231.929L259.518 14.5375C259.518 19.5726 259.406 24.1466 259.406 28.5434C259.294 32.8339 259.294 35.9187 259.294 37.8335V92.0136H271.655V0.105957H253.226Z" fill="black"/>
<path d="M271.627 92.0151H111.383V104H271.627V92.0151Z" fill="black"/>
<path d="M81.1311 103.999L70.1851 72.8313H26.9594L15.0826 103.999H0.00390625L41.0702 0.106445H57.8243L97.4013 103.999H81.1311ZM65.3078 61.3783L48.7026 15.4598L31.2038 61.3783H65.3078Z" fill="black"/>
<path d="M292.875 103.715V0H307.768V103.715H292.875Z" fill="black"/>
<path d="M399.91 3.47577C410.223 7.83713 415.25 16.0635 415.25 27.942C415.25 34.1472 413.872 39.2177 411.303 43.2599C408.585 47.1603 404.788 50.3516 399.91 52.6564C404.155 54.3939 407.357 56.5568 409.628 59.1807C411.75 61.911 412.979 66.2724 413.127 72.3357L413.723 86.2354C413.723 90.1358 414.17 93.1852 414.654 95.0645C415.548 98.3975 417.074 100.56 419.531 101.447V103.752H401.288C400.841 102.901 400.506 101.731 400.208 100.277C399.91 98.823 399.613 96.0572 399.464 92.015L398.533 74.8178C398.086 68.0098 395.48 63.5421 390.64 61.2373C387.773 59.9253 383.342 59.2161 377.274 59.2161H343.691V103.752H328.947V0.036427H379.359C387.773 0.000968758 394.586 1.17099 399.91 3.47577ZM394.288 43.5436C398.235 40.9552 400.357 36.1683 400.357 29.2185C400.357 21.8432 397.49 16.7727 391.831 14.1842C388.815 12.7304 384.869 12.0212 379.694 12.0212H343.691V47.4795H377.869C384.72 47.444 390.193 46.1675 394.288 43.5436Z" fill="black"/>
<path d="M514.428 103.715L503.482 72.6184H460.33L448.491 103.715H433.449L474.441 0H491.158L530.661 103.715H514.428ZM498.604 61.201L482.036 15.3534L464.575 61.201H498.604Z" fill="black"/>
<path d="M549.5 0H630.441V11.9849L563.313 91.4113H630.441V103.715H544.623V91.9787L611.453 12.304H549.5V0Z" fill="black"/>
<path d="M651.713 103.715V0H666.605V103.715H651.713Z" fill="black"/>
<path d="M794.002 50.1393C794.002 64.7835 789.907 76.9457 781.716 86.6258C771.999 97.9725 758.186 103.717 740.24 103.717C723.374 103.717 710.306 98.6461 700.738 88.8242C692.063 79.1087 687.818 66.9465 687.818 52.3023C687.818 39.0409 691.467 27.6942 698.764 18.2624C708.184 6.24201 722.146 0.0722656 740.538 0.0722656C759.675 0.0722656 773.972 5.67471 783.205 16.7377C790.354 25.5313 794.002 36.5942 794.002 50.1393ZM778.961 50.2811C778.961 38.7927 775.61 29.5027 768.946 22.5174C762.095 15.3903 752.973 11.9863 741.469 11.9863C730.076 11.9863 720.954 15.3903 713.843 22.3755C706.695 29.3608 703.195 39.6082 703.195 53.1177C703.195 64.0743 706.248 73.2226 712.317 80.5979C718.385 88.115 728.289 91.8027 742.102 91.8027C755.021 91.8027 764.441 87.5477 770.36 79.2151C776.057 70.9178 778.961 61.2023 778.961 50.2811Z" fill="black"/>
</g>
</svg>
