<svg xmlns="http://www.w3.org/2000/svg" width="87" height="80" viewBox="0 0 87 80" fill="none"><path d="m7.054 53.06 8.777 3.237 8.631 7.408-8.777-3.237z" fill="url(#a)"/><path d="m33.13 51.578 8.778 3.237L25.308 80l-8.778-3.237z" fill="url(#b)"/><path d="m32.286 35.283 8.778 3.237 10.478 8.993-8.777-3.236z" fill="url(#c)"/><path d="m66.853 25.308 8.778 3.237L52.388 63.81l-8.778-3.237z" fill="url(#d)"/><path d="M77.722.03 86.5 3.266 83.953 35.69l-8.777-3.237z" fill="url(#e)"/><path d="m7.055 53.06 8.63 7.408 16.6-25.185 10.48 8.994 16.688-25.32-7.703-6.611L77.722.029l-2.547 32.423-8.323-7.144L43.61 60.572l-10.48-8.994-16.6 25.185L.5 63.003z" fill="url(#f)"/><path d="m78.1.059-2.924 32.393L77.344 0zM67.17 25.516 43.61 60.572l22.927-35.47zM33.447 51.785 16.53 76.763 32.814 51.37z" fill="#fff"/><defs><linearGradient id="a" x1="14.312" y1="45.2" x2="16.659" y2="66.761" gradientUnits="userSpaceOnUse"><stop stop-color="#002F63"/><stop offset="1" stop-color="#007AFF"/></linearGradient><linearGradient id="b" x1="31.772" y1="41.348" x2="27.092" y2="86.493" gradientUnits="userSpaceOnUse"><stop stop-color="#002F63"/><stop offset="1" stop-color="#007AFF"/></linearGradient><linearGradient id="c" x1="33.455" y1="28.809" x2="45.75" y2="47.244" gradientUnits="userSpaceOnUse"><stop stop-color="#002F63"/><stop offset="1" stop-color="#007AFF"/></linearGradient><linearGradient id="d" x1="74.225" y1=".903" x2="51.372" y2="69.731" gradientUnits="userSpaceOnUse"><stop stop-color="#002F63"/><stop offset="1" stop-color="#3395FF"/></linearGradient><linearGradient id="e" x1="73.245" y1="-4.879" x2="89.231" y2="43.354" gradientUnits="userSpaceOnUse"><stop stop-color="#002F63"/><stop offset="1" stop-color="#007AFF"/></linearGradient><linearGradient id="f" x1="5.259" y1="69.136" x2="83.953" y2="8.058" gradientUnits="userSpaceOnUse"><stop stop-color="#002F63"/><stop offset="1" stop-color="#007AFF"/></linearGradient></defs></svg>